<svg xmlns="http://www.w3.org/2000/svg" width="750" height="1050" preserveAspectRatio="none" style="fill-rule:evenodd;clip-rule:evenodd;stroke-linecap:round;stroke-linejoin:round" viewBox="0 0 750 1050"><path d="M750 37.5C750 16.8 733.2 0 712.5 0h-675C16.8 0 0 16.8 0 37.5v975c0 20.7 16.8 37.5 37.5 37.5h675c20.7 0 37.5-16.8 37.5-37.5z" style="fill:#fff"/><path d="M723 15.6c0 1.6-1.34 2.9-3 2.9s-3-1.3-3-2.9V7.4c0-1.6 1.34-2.9 3-2.9s3 1.3 3 2.9zm-1.5 0V7.4c0-.79-.68-1.4-1.5-1.4s-1.5.62-1.5 1.4v8.2c0 .79.68 1.4 1.5 1.4s1.5-.61 1.5-1.4M714 4.75h1.5v13.5H714z" style="fill:#c00" transform="translate(-5330.56 -3.788)scale(7.50844)"/><path d="M723 15.6c0 1.6-1.34 2.9-3 2.9s-3-1.3-3-2.9V7.4c0-1.6 1.34-2.9 3-2.9s3 1.3 3 2.9zm-1.5 0V7.4c0-.79-.68-1.4-1.5-1.4s-1.5.62-1.5 1.4v8.2c0 .79.68 1.4 1.5 1.4s1.5-.61 1.5-1.4M714 4.75h1.5v13.5H714z" style="fill:#c00" transform="rotate(180 3040.28 526.894)scale(7.50844)"/><path d="M330.73 169.6c0-.48.21-.94.6-1.2q.24-.16.59-.18c.79-.03 1.11.56 1.24 1.06.13-.5.45-1.1 1.24-1.06q.35.02.6.19a1.4 1.4 0 0 1 .59 1.3l-.01.13c-.08.62-.5 1.31-1.01 1.96q-.51.64-.88 1.14l-.53.74s-.2-.3-.53-.74q-.37-.5-.88-1.14a4.4 4.4 0 0 1-1.02-2.08z" style="fill:#c00" transform="translate(-4421.32 -2111.114)scale(13.46368)"/><path d="M330.73 169.6c0-.48.21-.94.6-1.2q.24-.16.59-.18c.79-.03 1.11.56 1.24 1.06.13-.5.45-1.1 1.24-1.06q.35.02.6.19a1.4 1.4 0 0 1 .59 1.3l-.01.13c-.08.62-.5 1.31-1.01 1.96q-.51.64-.88 1.14l-.53.74s-.2-.3-.53-.74q-.37-.5-.88-1.14a4.4 4.4 0 0 1-1.02-2.08z" style="fill:#c00" transform="rotate(180 2585.66 1580.557)scale(13.46368)"/><path d="M330.73 169.6c0-.48.21-.94.6-1.2q.24-.16.59-.18c.79-.03 1.11.56 1.24 1.06.13-.5.45-1.1 1.24-1.06q.35.02.6.19a1.4 1.4 0 0 1 .59 1.3l-.01.13c-.08.62-.5 1.31-1.01 1.96q-.51.64-.88 1.14l-.53.74s-.2-.3-.53-.74q-.37-.5-.88-1.14a4.4 4.4 0 0 1-1.02-2.08z" style="fill:#c00" transform="translate(-11696.534 -5951.832)scale(35.71557)"/><path d="M330.73 169.6c0-.48.21-.94.6-1.2q.24-.16.59-.18c.79-.03 1.11.56 1.24 1.06.13-.5.45-1.1 1.24-1.06q.35.02.6.19a1.4 1.4 0 0 1 .59 1.3l-.01.13c-.08.62-.5 1.31-1.01 1.96q-.51.64-.88 1.14l-.53.74s-.2-.3-.53-.74q-.37-.5-.88-1.14a4.4 4.4 0 0 1-1.02-2.08z" style="fill:#c00" transform="translate(-11524.034 -5828.082)scale(35.71557)"/><path d="M330.73 169.6c0-.48.21-.94.6-1.2q.24-.16.59-.18c.79-.03 1.11.56 1.24 1.06.13-.5.45-1.1 1.24-1.06q.35.02.6.19a1.4 1.4 0 0 1 .59 1.3l-.01.13c-.08.62-.5 1.31-1.01 1.96q-.51.64-.88 1.14l-.53.74s-.2-.3-.53-.74q-.37-.5-.88-1.14a4.4 4.4 0 0 1-1.02-2.08z" style="fill:#c00" transform="rotate(179.995 6137.017 3439.041)scale(35.71557)"/><path d="M330.73 169.6c0-.48.21-.94.6-1.2q.24-.16.59-.18c.79-.03 1.11.56 1.24 1.06.13-.5.45-1.1 1.24-1.06q.35.02.6.19a1.4 1.4 0 0 1 .59 1.3l-.01.13c-.08.62-.5 1.31-1.01 1.96q-.51.64-.88 1.14l-.53.74s-.2-.3-.53-.74q-.37-.5-.88-1.14a4.4 4.4 0 0 1-1.02-2.08z" style="fill:#c00" transform="translate(-11696.534 -5704.332)scale(35.71557)"/><path d="M330.73 169.6c0-.48.21-.94.6-1.2q.24-.16.59-.18c.79-.03 1.11.56 1.24 1.06.13-.5.45-1.1 1.24-1.06q.35.02.6.19a1.4 1.4 0 0 1 .59 1.3l-.01.13c-.08.62-.5 1.31-1.01 1.96q-.51.64-.88 1.14l-.53.74s-.2-.3-.53-.74q-.37-.5-.88-1.14a4.4 4.4 0 0 1-1.02-2.08z" style="fill:#c00" transform="translate(-11351.534 -5704.332)scale(35.71557)"/><path d="M330.73 169.6c0-.48.21-.94.6-1.2q.24-.16.59-.18c.79-.03 1.11.56 1.24 1.06.13-.5.45-1.1 1.24-1.06q.35.02.6.19a1.4 1.4 0 0 1 .59 1.3l-.01.13c-.08.62-.5 1.31-1.01 1.96q-.51.64-.88 1.14l-.53.74s-.2-.3-.53-.74q-.37-.5-.88-1.14a4.4 4.4 0 0 1-1.02-2.08z" style="fill:#c00" transform="translate(-11351.534 -5951.832)scale(35.71557)"/><path d="M330.73 169.6c0-.48.21-.94.6-1.2q.24-.16.59-.18c.79-.03 1.11.56 1.24 1.06.13-.5.45-1.1 1.24-1.06q.35.02.6.19a1.4 1.4 0 0 1 .59 1.3l-.01.13c-.08.62-.5 1.31-1.01 1.96q-.51.64-.88 1.14l-.53.74s-.2-.3-.53-.74q-.37-.5-.88-1.14a4.4 4.4 0 0 1-1.02-2.08z" style="fill:#c00" transform="rotate(179.995 6050.767 3500.916)scale(35.71557)"/><path d="M330.73 169.6c0-.48.21-.94.6-1.2q.24-.16.59-.18c.79-.03 1.11.56 1.24 1.06.13-.5.45-1.1 1.24-1.06q.35.02.6.19a1.4 1.4 0 0 1 .59 1.3l-.01.13c-.08.62-.5 1.31-1.01 1.96q-.51.64-.88 1.14l-.53.74s-.2-.3-.53-.74q-.37-.5-.88-1.14a4.4 4.4 0 0 1-1.02-2.08z" style="fill:#c00" transform="rotate(179.995 6223.267 3500.916)scale(35.71557)"/><path d="M330.73 169.6c0-.48.21-.94.6-1.2q.24-.16.59-.18c.79-.03 1.11.56 1.24 1.06.13-.5.45-1.1 1.24-1.06q.35.02.6.19a1.4 1.4 0 0 1 .59 1.3l-.01.13c-.08.62-.5 1.31-1.01 1.96q-.51.64-.88 1.14l-.53.74s-.2-.3-.53-.74q-.37-.5-.88-1.14a4.4 4.4 0 0 1-1.02-2.08z" style="fill:#c00" transform="rotate(179.995 6050.767 3377.166)scale(35.71557)"/><path d="M330.73 169.6c0-.48.21-.94.6-1.2q.24-.16.59-.18c.79-.03 1.11.56 1.24 1.06.13-.5.45-1.1 1.24-1.06q.35.02.6.19a1.4 1.4 0 0 1 .59 1.3l-.01.13c-.08.62-.5 1.31-1.01 1.96q-.51.64-.88 1.14l-.53.74s-.2-.3-.53-.74q-.37-.5-.88-1.14a4.4 4.4 0 0 1-1.02-2.08z" style="fill:#c00" transform="rotate(179.995 6223.267 3377.166)scale(35.71557)"/></svg>