<svg xmlns="http://www.w3.org/2000/svg" width="750" height="1050" preserveAspectRatio="none" style="fill-rule:evenodd;clip-rule:evenodd;stroke-linecap:round;stroke-linejoin:round" viewBox="0 0 750 1050"><path d="M750 37.5C750 16.8 733.2 0 712.5 0h-675C16.8 0 0 16.8 0 37.5v975c0 20.7 16.8 37.5 37.5 37.5h675c20.7 0 37.5-16.8 37.5-37.5z" style="fill:#fff"/><path d="M86.78 112.6h11.26v22.52H30.46V120.1c0-6.4 2.78-11.8 7.51-16.52 3.92-3.92 9.28-7.4 15.16-10.75 7.88-4.48 16.75-8.77 23.65-14.15 5.66-4.43 10-9.58 10-16.77 0-8.12-1.36-13.45-5.06-16.6-3.86-3.27-9.74-4.05-17.47-4.05-14.65 0-22.52 8.1-22.52 16.9H30.46c0-13.74 10.9-28.16 33.8-28.16C75.3 30 83.48 32.04 89 36.74c5.7 4.84 9.03 12.64 9.03 25.17 0 9.16-4.14 16.4-10.58 22.44-5.6 5.25-13.03 9.6-20.5 13.7-6.73 3.7-13.48 7.2-18.54 11.28-3.82 3.08-6.7 6.36-6.7 10.77v3.76h45.06zm576.44 824.8h-11.26v-22.52h67.58v15.02c0 6.4-2.78 11.8-7.51 16.52-3.92 3.92-9.28 7.4-15.16 10.75-7.88 4.48-16.75 8.77-23.65 14.15-5.66 4.43-10 9.58-10 16.77 0 8.12 1.36 13.45 5.06 16.6 3.86 3.27 9.74 4.05 17.47 4.05 14.65 0 22.52-8.1 22.52-16.9h11.27c0 13.74-10.9 28.16-33.8 28.16-11.04 0-19.23-2.04-24.75-6.73-5.7-4.85-9.03-12.65-9.03-25.18 0-9.16 4.14-16.4 10.58-22.44 5.6-5.25 13.03-9.6 20.5-13.7 6.73-3.7 13.48-7.2 18.54-11.28 3.82-3.08 6.7-6.36 6.7-10.77v-3.76h-45.06zM46.07 216.61c-8.59-1.67-11.32-10.3-11.25-15.38.24-15.74 15.2-27.32 29.44-47.45 14.24 20.13 29.18 31.71 29.42 47.45.08 5.08-2.66 13.71-11.25 15.38q-.65.08-1.33.07a12.2 12.2 0 0 1-12.15-12.14l.02-.57c.01-.85-.4-1.29-.84-1.29-.5.01-1.09.65-1.09 2a53 53 0 0 0 6.45 22.58H55.01a52.6 52.6 0 0 0 6.45-22.57c0-1.36-.57-2-1.1-2.01-.44 0-.83.44-.83 1.3l.02.56a12.2 12.2 0 0 1-13.48 12.07m18.19-62.83-.03-.03h.04zm639.67 679.61c8.59 1.67 11.32 10.3 11.25 15.38-.24 15.74-15.2 27.32-29.44 47.45-14.24-20.13-29.18-31.71-29.42-47.45-.08-5.08 2.66-13.71 11.25-15.38q.65-.08 1.33-.07a12.2 12.2 0 0 1 12.15 12.14l-.02.57c-.01.85.4 1.3.84 1.3.5-.02 1.09-.66 1.09-2.02a53 53 0 0 0-6.45-22.57h18.48a52.6 52.6 0 0 0-6.45 22.57c0 1.36.57 2 1.1 2.01.44 0 .83-.44.83-1.3l-.01-.56a12.2 12.2 0 0 1 13.47-12.07m-18.19 62.83.03.03h-.04zM326.77 223c-22.78-4.42-30.03-27.31-29.85-40.8.64-41.75 40.31-72.46 78.1-125.88 37.77 53.42 77.4 84.13 78.05 125.87.21 13.5-7.07 36.39-29.85 40.81a32.4 32.4 0 0 1-35.74-32.03l.03-1.5c.03-2.24-1.04-3.42-2.21-3.42-1.36.03-2.9 1.71-2.9 5.32a140 140 0 0 0 17.1 59.88h-49.02a139.4 139.4 0 0 0 17.1-59.88c0-3.6-1.5-5.29-2.89-5.32-1.18 0-2.21 1.18-2.21 3.42l.03 1.5A32.35 32.35 0 0 1 326.77 223m48.24-166.68-.07-.07h.1zm48.22 770.65c22.78 4.43 30.03 27.32 29.85 40.81-.64 41.75-40.31 72.45-78.1 125.87-37.77-53.42-77.4-84.12-78.05-125.87-.21-13.5 7.07-36.38 29.85-40.81q1.72-.2 3.54-.18a32.4 32.4 0 0 1 32.2 32.2l-.03 1.5c-.03 2.26 1.04 3.44 2.21 3.44 1.36-.04 2.9-1.72 2.9-5.32a140 140 0 0 0-17.1-59.89h49.02a139.4 139.4 0 0 0-17.1 59.89c0 3.6 1.5 5.28 2.89 5.32 1.18 0 2.21-1.18 2.21-3.43l-.03-1.5a32.35 32.35 0 0 1 35.74-32.03m-48.24 166.68.07.07h-.1z"/></svg>