<svg xmlns="http://www.w3.org/2000/svg" width="750" height="1050" preserveAspectRatio="none" style="fill-rule:evenodd;clip-rule:evenodd;stroke-linecap:round;stroke-linejoin:round" viewBox="0 0 750 1050"><path d="M750 37.5C750 16.8 733.2 0 712.5 0h-675C16.8 0 0 16.8 0 37.5v975c0 20.7 16.8 37.5 37.5 37.5h675c20.7 0 37.5-16.8 37.5-37.5z" style="fill:#fff"/><path d="M83.71 85.46A31.16 31.16 0 1 1 64.24 30 31.16 31.16 0 0 1 95.4 61.15v42.7c.08 2.3.13 15.92-9.82 24.4-4.56 3.9-11.24 6.87-21.17 6.87-10.62 0-27.14-5.43-29.3-22.63l11.58-1.46c1.26 10.05 11.52 12.4 17.72 12.4 6.33 0 10.68-1.58 13.6-4.06 6.55-5.6 5.73-14.95 5.73-14.95l-.02-.22zm0-24.31a19.47 19.47 0 1 0-38.94.01 19.47 19.47 0 0 0 38.94-.01m582.58 903.39a31.16 31.16 0 1 1 19.47 55.46 31.16 31.16 0 0 1-31.15-31.15v-42.7c-.08-2.3-.13-15.92 9.82-24.4 4.56-3.9 11.24-6.87 21.17-6.87 10.62 0 27.14 5.43 29.3 22.63l-11.58 1.46c-1.26-10.05-11.52-12.4-17.72-12.4-6.33 0-10.68 1.58-13.6 4.06-6.55 5.6-5.73 14.95-5.73 14.95l.02.22zm0 24.31a19.47 19.47 0 1 0 38.94-.01 19.47 19.47 0 0 0-38.94.01M720 849.57v.77q0 .36-.02.7a22 22 0 0 1-.53 3.94 14.48 14.48 0 0 1-21.8 9.78c-2.92-1.88-2.8-.72-1.17 1.17 11.15 13.03 4.32 30-10.67 30.32h-.12c-15-.32-21.82-17.29-10.67-30.32 1.63-1.9 1.74-3.05-1.16-1.17a14.5 14.5 0 0 1-21.82-9.78 23 23 0 0 1-.52-3.93q-.03-.36-.03-.71l.01-.4-.01-.37a15.4 15.4 0 0 1 15.33-15.33c7.36 0 13.97 5.28 15.07 12.58.13.87.45 1.38.82 1.45.43-.08.74-.83.58-2.38-.85-8.06-2.85-15.94-6.5-23.17h17.93c-3.66 7.23-5.66 15.11-6.5 23.17-.17 1.55.14 2.3.57 2.38.35-.07.69-.58.82-1.45 1.1-7.3 7.7-12.58 15.07-12.58A15.4 15.4 0 0 1 720 849.57M30 200.43v-.77q0-.36.02-.7.1-2.12.53-3.94a14.48 14.48 0 0 1 21.8-9.78c2.92 1.88 2.8.72 1.17-1.17-11.15-13.03-4.32-30 10.67-30.32h.12c15 .32 21.82 17.29 10.67 30.32-1.63 1.9-1.74 3.05 1.16 1.17a14.5 14.5 0 0 1 21.82 9.78q.42 1.82.52 3.93.03.35.03.71l-.01.4.01.37a15.4 15.4 0 0 1-15.33 15.33c-7.36 0-13.97-5.28-15.07-12.58-.13-.87-.45-1.38-.82-1.45-.43.08-.74.83-.57 2.38.84 8.06 2.84 15.94 6.5 23.17H55.28c3.66-7.23 5.66-15.11 6.5-23.17.17-1.55-.14-2.3-.57-2.38-.35.07-.69.58-.82 1.45-1.1 7.3-7.7 12.58-15.07 12.58A15.4 15.4 0 0 1 30 200.43m81.68-20.4V178q0-.94.03-1.88.29-5.6 1.43-10.44c7.16-31.88 39.65-37.62 57.81-25.93 7.73 4.98 7.41 1.92 3.1-3.1-29.56-34.56-11.47-79.55 28.28-80.4h.33c39.78.85 57.84 45.84 28.28 80.4-4.31 5.02-4.6 8.08 3.1 3.1 18.16-11.69 50.65-5.95 57.85 25.93.7 3.24 1.2 6.7 1.39 10.44q.06.94.07 1.88l-.04 1.04.04 1c0 22.3-18.35 40.64-40.65 40.64-19.52 0-37.04-14-39.96-33.34-.36-2.32-1.22-3.67-2.18-3.85-1.14.21-1.96 2.2-1.53 6.3 2.25 21.38 7.55 42.29 17.24 61.45h-47.55c9.69-19.16 15-40.07 17.24-61.45.43-4.1-.4-6.09-1.53-6.3-.93.18-1.82 1.53-2.18 3.85-2.92 19.34-20.4 33.34-39.96 33.34-22.27 0-40.61-18.35-40.61-40.65m345 247.5v-2.03c0-.64 0-1.24.03-1.88q.29-5.6 1.43-10.44c7.16-31.88 39.65-37.62 57.81-25.93 7.73 4.98 7.41 1.92 3.1-3.1-29.56-34.56-11.47-79.55 28.28-80.4h.33c39.78.85 57.84 45.84 28.28 80.4-4.31 5.02-4.6 8.08 3.1 3.1 18.16-11.69 50.65-5.95 57.85 25.93.7 3.24 1.2 6.7 1.39 10.44.03.64.07 1.24.07 1.88l-.04 1.04.04 1c0 22.3-18.35 40.64-40.65 40.64-19.52 0-37.04-14-39.96-33.34-.36-2.32-1.22-3.67-2.18-3.85-1.14.21-1.96 2.2-1.53 6.3 2.25 21.38 7.55 42.29 17.24 61.45h-47.55c9.69-19.16 15-40.07 17.24-61.45.43-4.1-.4-6.09-1.53-6.3-.93.18-1.82 1.53-2.18 3.85-2.92 19.34-20.4 33.34-39.96 33.34-22.27 0-40.61-18.35-40.61-40.65m-345 0v-2.03q0-.94.03-1.88.29-5.6 1.43-10.44c7.16-31.88 39.65-37.62 57.81-25.93 7.73 4.98 7.41 1.92 3.1-3.1-29.56-34.56-11.47-79.55 28.28-80.4h.33c39.78.85 57.84 45.84 28.28 80.4-4.31 5.02-4.6 8.08 3.1 3.1 18.16-11.69 50.65-5.95 57.85 25.93.7 3.24 1.2 6.7 1.39 10.44q.06.94.07 1.88l-.04 1.04.04 1c0 22.3-18.35 40.64-40.65 40.64-19.52 0-37.04-14-39.96-33.34-.36-2.32-1.22-3.67-2.18-3.85-1.14.21-1.96 2.2-1.53 6.3 2.25 21.38 7.55 42.29 17.24 61.45h-47.55c9.69-19.16 15-40.07 17.24-61.45.43-4.1-.4-6.09-1.53-6.3-.93.18-1.82 1.53-2.18 3.85-2.92 19.34-20.4 33.34-39.96 33.34-22.27 0-40.61-18.35-40.61-40.65m172.5 123.75v-2.03q0-.94.03-1.88.29-5.6 1.43-10.44c7.16-31.88 39.65-37.62 57.81-25.93 7.73 4.98 7.41 1.92 3.1-3.1-29.56-34.56-11.47-79.55 28.28-80.4h.33c39.78.85 57.84 45.84 28.28 80.4-4.31 5.02-4.6 8.08 3.1 3.1 18.16-11.69 50.65-5.95 57.85 25.93.7 3.24 1.2 6.7 1.39 10.44q.06.94.07 1.88l-.04 1.04.04 1c0 22.3-18.35 40.64-40.65 40.64-19.52 0-37.04-14-39.96-33.34-.36-2.32-1.22-3.67-2.18-3.85-1.14.21-1.96 2.2-1.53 6.3 2.25 21.38 7.55 42.29 17.24 61.45h-47.55c9.69-19.16 15-40.07 17.24-61.45.43-4.1-.4-6.09-1.53-6.3-.93.18-1.82 1.53-2.18 3.85-2.92 19.34-20.4 33.34-39.96 33.34-22.27 0-40.61-18.35-40.61-40.65m172.5-371.25V178q0-.94.03-1.88.29-5.6 1.43-10.44c7.16-31.88 39.65-37.62 57.81-25.93 7.73 4.98 7.41 1.92 3.1-3.1-29.56-34.56-11.47-79.55 28.28-80.4h.33c39.78.85 57.84 45.84 28.28 80.4-4.31 5.02-4.6 8.08 3.1 3.1 18.16-11.69 50.65-5.95 57.85 25.93.7 3.24 1.2 6.7 1.39 10.44q.06.94.07 1.88l-.04 1.04.04 1c0 22.3-18.35 40.64-40.65 40.64-19.52 0-37.04-14-39.96-33.34-.36-2.32-1.22-3.67-2.18-3.85-1.14.21-1.96 2.2-1.53 6.3 2.25 21.38 7.55 42.29 17.24 61.45h-47.55c9.69-19.16 15-40.07 17.24-61.45.43-4.1-.4-6.09-1.53-6.3-.93.18-1.82 1.53-2.18 3.85-2.92 19.34-20.4 33.34-39.96 33.34-22.27 0-40.61-18.35-40.61-40.65M293.32 869.97V872q0 .94-.03 1.88-.29 5.6-1.43 10.44c-7.16 31.88-39.65 37.62-57.81 25.93-7.73-4.98-7.41-1.92-3.1 3.1 29.56 34.56 11.47 79.55-28.28 80.4h-.33c-39.78-.85-57.84-45.84-28.28-80.4 4.31-5.02 4.6-8.08-3.1-3.1-18.16 11.69-50.65 5.95-57.85-25.93a62 62 0 0 1-1.39-10.44q-.06-.94-.07-1.88l.04-1.04-.04-1c0-22.3 18.35-40.64 40.65-40.64 19.52 0 37.04 14 39.96 33.34.36 2.32 1.22 3.67 2.18 3.85 1.14-.21 1.96-2.2 1.53-6.3-2.25-21.38-7.55-42.29-17.24-61.45h47.55c-9.69 19.16-15 40.07-17.24 61.45-.43 4.1.4 6.09 1.53 6.3.93-.18 1.82-1.53 2.18-3.85 2.92-19.34 20.4-33.34 39.96-33.34 22.27 0 40.61 18.35 40.61 40.65m0-247.5v2.03q0 .94-.03 1.88-.29 5.6-1.43 10.44c-7.16 31.88-39.65 37.62-57.81 25.93-7.73-4.98-7.41-1.92-3.1 3.1 29.56 34.56 11.47 79.55-28.28 80.4h-.33c-39.78-.85-57.84-45.84-28.28-80.4 4.31-5.02 4.6-8.08-3.1-3.1-18.16 11.69-50.65 5.95-57.85-25.93a62 62 0 0 1-1.39-10.44q-.06-.94-.07-1.88l.04-1.04-.04-1c0-22.3 18.35-40.64 40.65-40.64 19.52 0 37.04 14 39.96 33.34.36 2.32 1.22 3.67 2.18 3.85 1.14-.21 1.96-2.2 1.53-6.3-2.25-21.38-7.55-42.29-17.24-61.45h47.55c-9.69 19.16-15 40.07-17.24 61.45-.43 4.1.4 6.09 1.53 6.3.93-.18 1.82-1.53 2.18-3.85 2.92-19.34 20.4-33.34 39.96-33.34 22.27 0 40.61 18.35 40.61 40.65m345 0v2.03q0 .94-.03 1.88-.29 5.6-1.43 10.44c-7.16 31.88-39.65 37.62-57.81 25.93-7.73-4.98-7.41-1.92-3.1 3.1 29.56 34.56 11.47 79.55-28.28 80.4h-.33c-39.78-.85-57.84-45.84-28.28-80.4 4.31-5.02 4.6-8.08-3.1-3.1-18.16 11.69-50.65 5.95-57.85-25.93a62 62 0 0 1-1.39-10.44q-.06-.94-.07-1.88l.04-1.04-.04-1c0-22.3 18.35-40.64 40.65-40.64 19.52 0 37.04 14 39.96 33.34.36 2.32 1.22 3.67 2.18 3.85 1.14-.21 1.96-2.2 1.53-6.3-2.25-21.38-7.55-42.29-17.24-61.45h47.55c-9.69 19.16-15 40.07-17.24 61.45-.43 4.1.4 6.09 1.53 6.3.93-.18 1.82-1.53 2.18-3.85 2.92-19.34 20.4-33.34 39.96-33.34 22.27 0 40.61 18.35 40.61 40.65m0 247.5V872q0 .94-.03 1.88-.29 5.6-1.43 10.44c-7.16 31.88-39.65 37.62-57.81 25.93-7.73-4.98-7.41-1.92-3.1 3.1 29.56 34.56 11.47 79.55-28.28 80.4h-.33c-39.78-.85-57.84-45.84-28.28-80.4 4.31-5.02 4.6-8.08-3.1-3.1-18.16 11.69-50.65 5.95-57.85-25.93a62 62 0 0 1-1.39-10.44q-.06-.94-.07-1.88l.04-1.04-.04-1c0-22.3 18.35-40.64 40.65-40.64 19.52 0 37.04 14 39.96 33.34.36 2.32 1.22 3.67 2.18 3.85 1.14-.21 1.96-2.2 1.53-6.3-2.25-21.38-7.55-42.29-17.24-61.45h47.55c-9.69 19.16-15 40.07-17.24 61.45-.43 4.1.4 6.09 1.53 6.3.93-.18 1.82-1.53 2.18-3.85 2.92-19.34 20.4-33.34 39.96-33.34 22.27 0 40.61 18.35 40.61 40.65"/></svg>